<?xml version="1.0" encoding="utf-8" standalone="no"?>
<!DOCTYPE svg PUBLIC "-//W3C//DTD SVG 1.1//EN"
  "http://www.w3.org/Graphics/SVG/1.1/DTD/svg11.dtd">
<!-- Created with matplotlib (https://matplotlib.org/) -->
<svg height="360pt" version="1.1" viewBox="0 0 216 360" width="216pt" xmlns="http://www.w3.org/2000/svg" xmlns:xlink="http://www.w3.org/1999/xlink">
 <defs>
  <style type="text/css">
*{stroke-linecap:butt;stroke-linejoin:round;}
  </style>
 </defs>
 <g id="figure_1">
  <g id="patch_1">
   <path d="M 0 360 
L 216 360 
L 216 0 
L 0 0 
z
" style="fill:#ffffff;"/>
  </g>
  <g id="axes_1">
   <g id="patch_2">
    <path d="M 63.54 329.84 
L 203.04 329.84 
L 203.04 25.164 
L 63.54 25.164 
z
" style="fill:#ffffff;"/>
   </g>
   <g id="matplotlib.axis_1">
    <g id="xtick_1">
     <g id="line2d_1">
      <defs>
       <path d="M 0 0 
L 0 6 
" id="m3698490beb" style="stroke:#262626;stroke-width:2;"/>
      </defs>
      <g>
       <use style="fill:#262626;stroke:#262626;stroke-width:2;" x="63.54" xlink:href="#m3698490beb" y="329.84"/>
      </g>
     </g>
    </g>
    <g id="xtick_2">
     <g id="line2d_2">
      <g>
       <use style="fill:#262626;stroke:#262626;stroke-width:2;" x="133.29" xlink:href="#m3698490beb" y="329.84"/>
      </g>
     </g>
    </g>
    <g id="xtick_3">
     <g id="line2d_3">
      <g>
       <use style="fill:#262626;stroke:#262626;stroke-width:2;" x="203.04" xlink:href="#m3698490beb" y="329.84"/>
      </g>
     </g>
    </g>
    <g id="xtick_4">
     <g id="line2d_4"/>
     <g id="text_1">
      <!-- NSSC-32 -->
      <defs>
       <path d="M 52.828125 0 
L 16.015625 58.59375 
Q 16.109375 56.203125 16.265625 53.859375 
Q 16.359375 51.859375 16.421875 49.625 
Q 16.5 47.40625 16.5 45.703125 
L 16.5 0 
L 8.203125 0 
L 8.203125 68.796875 
L 19.046875 68.796875 
L 56.25 9.8125 
Q 56.109375 12.203125 55.953125 14.59375 
Q 55.859375 16.65625 55.765625 19.0625 
Q 55.671875 21.484375 55.671875 23.6875 
L 55.671875 68.796875 
L 64.0625 68.796875 
L 64.0625 0 
z
" id="LiberationSans-78"/>
       <path d="M 62.109375 19 
Q 62.109375 14.65625 60.421875 10.984375 
Q 58.734375 7.328125 55.21875 4.65625 
Q 51.703125 2 46.359375 0.5 
Q 41.015625 -0.984375 33.6875 -0.984375 
Q 20.84375 -0.984375 13.671875 3.515625 
Q 6.5 8.015625 4.546875 16.5 
L 13.578125 18.3125 
Q 14.265625 15.625 15.671875 13.421875 
Q 17.09375 11.234375 19.5 9.640625 
Q 21.921875 8.0625 25.484375 7.171875 
Q 29.046875 6.296875 34.03125 6.296875 
Q 38.1875 6.296875 41.65625 7 
Q 45.125 7.71875 47.609375 9.171875 
Q 50.09375 10.640625 51.484375 12.953125 
Q 52.875 15.28125 52.875 18.5 
Q 52.875 21.875 51.34375 23.96875 
Q 49.8125 26.078125 47.015625 27.4375 
Q 44.234375 28.8125 40.375 29.734375 
Q 36.53125 30.671875 31.84375 31.734375 
Q 28.953125 32.375 26.046875 33.125 
Q 23.140625 33.890625 20.484375 34.9375 
Q 17.828125 35.984375 15.484375 37.390625 
Q 13.140625 38.8125 11.421875 40.796875 
Q 9.71875 42.78125 8.734375 45.390625 
Q 7.765625 48 7.765625 51.421875 
Q 7.765625 56.296875 9.734375 59.78125 
Q 11.71875 63.28125 15.234375 65.53125 
Q 18.75 67.78125 23.53125 68.796875 
Q 28.328125 69.828125 33.890625 69.828125 
Q 40.28125 69.828125 44.8125 68.828125 
Q 49.359375 67.828125 52.484375 65.8125 
Q 55.609375 63.8125 57.484375 60.859375 
Q 59.375 57.90625 60.5 54 
L 51.3125 52.390625 
Q 50.640625 54.890625 49.34375 56.84375 
Q 48.046875 58.796875 45.9375 60.109375 
Q 43.84375 61.421875 40.84375 62.109375 
Q 37.84375 62.796875 33.796875 62.796875 
Q 29 62.796875 25.75 61.9375 
Q 22.515625 61.078125 20.53125 59.609375 
Q 18.5625 58.15625 17.703125 56.171875 
Q 16.84375 54.203125 16.84375 51.90625 
Q 16.84375 48.828125 18.375 46.84375 
Q 19.921875 44.875 22.5625 43.546875 
Q 25.203125 42.234375 28.65625 41.359375 
Q 32.125 40.484375 36.03125 39.59375 
Q 39.203125 38.875 42.359375 38.109375 
Q 45.515625 37.359375 48.390625 36.296875 
Q 51.265625 35.25 53.78125 33.828125 
Q 56.296875 32.421875 58.15625 30.375 
Q 60.015625 28.328125 61.0625 25.53125 
Q 62.109375 22.75 62.109375 19 
z
" id="LiberationSans-83"/>
       <path d="M 38.671875 62.203125 
Q 32.8125 62.203125 28.296875 60.25 
Q 23.78125 58.296875 20.71875 54.6875 
Q 17.671875 51.078125 16.109375 46 
Q 14.546875 40.921875 14.546875 34.71875 
Q 14.546875 28.515625 16.234375 23.359375 
Q 17.921875 18.21875 21.0625 14.5 
Q 24.21875 10.796875 28.78125 8.734375 
Q 33.34375 6.6875 39.0625 6.6875 
Q 43.0625 6.6875 46.359375 7.734375 
Q 49.65625 8.796875 52.3125 10.6875 
Q 54.984375 12.59375 57.078125 15.203125 
Q 59.1875 17.828125 60.796875 21 
L 68.40625 17.1875 
Q 66.546875 13.328125 63.8125 10 
Q 61.078125 6.6875 57.390625 4.25 
Q 53.71875 1.8125 49.046875 0.40625 
Q 44.390625 -0.984375 38.625 -0.984375 
Q 30.28125 -0.984375 24 1.671875 
Q 17.71875 4.34375 13.5 9.109375 
Q 9.28125 13.875 7.171875 20.40625 
Q 5.078125 26.953125 5.078125 34.71875 
Q 5.078125 42.78125 7.296875 49.265625 
Q 9.515625 55.765625 13.78125 60.328125 
Q 18.0625 64.890625 24.3125 67.359375 
Q 30.5625 69.828125 38.578125 69.828125 
Q 49.5625 69.828125 56.9375 65.53125 
Q 64.3125 61.234375 67.78125 52.78125 
L 58.9375 49.859375 
Q 57.953125 52.296875 56.296875 54.515625 
Q 54.640625 56.734375 52.140625 58.4375 
Q 49.65625 60.15625 46.3125 61.171875 
Q 42.96875 62.203125 38.671875 62.203125 
z
" id="LiberationSans-67"/>
       <path d="M 4.4375 22.65625 
L 4.4375 30.46875 
L 28.859375 30.46875 
L 28.859375 22.65625 
z
" id="LiberationSans-45"/>
       <path d="M 51.21875 19 
Q 51.21875 14.265625 49.671875 10.546875 
Q 48.140625 6.84375 45.1875 4.265625 
Q 42.234375 1.703125 37.859375 0.359375 
Q 33.5 -0.984375 27.875 -0.984375 
Q 21.484375 -0.984375 17.109375 0.609375 
Q 12.75 2.203125 9.90625 4.8125 
Q 7.078125 7.421875 5.65625 10.765625 
Q 4.25 14.109375 3.8125 17.671875 
L 12.890625 18.5 
Q 13.28125 15.765625 14.328125 13.515625 
Q 15.375 11.28125 17.1875 9.671875 
Q 19 8.0625 21.625 7.171875 
Q 24.265625 6.296875 27.875 6.296875 
Q 34.515625 6.296875 38.296875 9.5625 
Q 42.09375 12.84375 42.09375 19.28125 
Q 42.09375 23.09375 40.40625 25.40625 
Q 38.71875 27.734375 36.203125 29.03125 
Q 33.6875 30.328125 30.734375 30.765625 
Q 27.78125 31.203125 25.296875 31.203125 
L 20.3125 31.203125 
L 20.3125 38.8125 
L 25.09375 38.8125 
Q 27.59375 38.8125 30.265625 39.328125 
Q 32.953125 39.84375 35.171875 41.1875 
Q 37.40625 42.53125 38.84375 44.828125 
Q 40.28125 47.125 40.28125 50.6875 
Q 40.28125 56.203125 37.03125 59.390625 
Q 33.796875 62.59375 27.390625 62.59375 
Q 21.578125 62.59375 17.984375 59.609375 
Q 14.40625 56.640625 13.8125 51.21875 
L 4.984375 51.90625 
Q 5.515625 56.453125 7.46875 59.8125 
Q 9.421875 63.1875 12.421875 65.40625 
Q 15.4375 67.625 19.28125 68.71875 
Q 23.140625 69.828125 27.484375 69.828125 
Q 33.25 69.828125 37.390625 68.375 
Q 41.546875 66.9375 44.1875 64.46875 
Q 46.828125 62.015625 48.0625 58.6875 
Q 49.3125 55.375 49.3125 51.609375 
Q 49.3125 48.578125 48.484375 45.9375 
Q 47.65625 43.3125 45.890625 41.203125 
Q 44.140625 39.109375 41.421875 37.59375 
Q 38.71875 36.078125 34.90625 35.296875 
L 34.90625 35.109375 
Q 39.0625 34.671875 42.140625 33.21875 
Q 45.21875 31.78125 47.21875 29.625 
Q 49.21875 27.484375 50.21875 24.75 
Q 51.21875 22.015625 51.21875 19 
z
" id="LiberationSans-51"/>
       <path d="M 5.03125 0 
L 5.03125 6.203125 
Q 7.515625 11.921875 11.109375 16.28125 
Q 14.703125 20.65625 18.65625 24.1875 
Q 22.609375 27.734375 26.484375 30.765625 
Q 30.375 33.796875 33.5 36.8125 
Q 36.625 39.84375 38.546875 43.15625 
Q 40.484375 46.484375 40.484375 50.6875 
Q 40.484375 53.609375 39.59375 55.828125 
Q 38.71875 58.0625 37.0625 59.5625 
Q 35.40625 61.078125 33.078125 61.828125 
Q 30.765625 62.59375 27.9375 62.59375 
Q 25.296875 62.59375 22.96875 61.859375 
Q 20.65625 61.140625 18.84375 59.671875 
Q 17.046875 58.203125 15.890625 56.03125 
Q 14.75 53.859375 14.40625 50.984375 
L 5.421875 51.8125 
Q 5.859375 55.515625 7.46875 58.78125 
Q 9.078125 62.0625 11.90625 64.53125 
Q 14.75 67 18.71875 68.40625 
Q 22.703125 69.828125 27.9375 69.828125 
Q 33.0625 69.828125 37.0625 68.609375 
Q 41.0625 67.390625 43.8125 64.984375 
Q 46.578125 62.59375 48.046875 59.078125 
Q 49.515625 55.5625 49.515625 50.984375 
Q 49.515625 47.515625 48.265625 44.390625 
Q 47.015625 41.265625 44.9375 38.421875 
Q 42.875 35.59375 40.140625 32.953125 
Q 37.40625 30.328125 34.421875 27.8125 
Q 31.453125 25.296875 28.421875 22.828125 
Q 25.390625 20.359375 22.71875 17.859375 
Q 20.0625 15.375 17.96875 12.8125 
Q 15.875 10.25 14.703125 7.46875 
L 50.59375 7.46875 
L 50.59375 0 
z
" id="LiberationSans-50"/>
      </defs>
      <g style="fill:#262626;" transform="translate(73.073438 344.93625)scale(0.12 -0.12)">
       <use xlink:href="#LiberationSans-78"/>
       <use x="72.216797" xlink:href="#LiberationSans-83"/>
       <use x="138.916016" xlink:href="#LiberationSans-83"/>
       <use x="205.615234" xlink:href="#LiberationSans-67"/>
       <use x="277.832031" xlink:href="#LiberationSans-45"/>
       <use x="311.132812" xlink:href="#LiberationSans-51"/>
       <use x="366.748047" xlink:href="#LiberationSans-50"/>
      </g>
     </g>
    </g>
    <g id="xtick_5">
     <g id="line2d_5"/>
     <g id="text_2">
      <!-- NSSCP-32 -->
      <defs>
       <path d="M 61.421875 48.09375 
Q 61.421875 43.609375 59.9375 39.71875 
Q 58.453125 35.84375 55.5 32.984375 
Q 52.546875 30.125 48.09375 28.46875 
Q 43.65625 26.8125 37.75 26.8125 
L 17.53125 26.8125 
L 17.53125 0 
L 8.203125 0 
L 8.203125 68.796875 
L 37.15625 68.796875 
Q 43.265625 68.796875 47.796875 67.3125 
Q 52.34375 65.828125 55.375 63.109375 
Q 58.40625 60.40625 59.90625 56.5625 
Q 61.421875 52.734375 61.421875 48.09375 
z
M 52.046875 48 
Q 52.046875 54.546875 48.046875 57.9375 
Q 44.046875 61.328125 36.03125 61.328125 
L 17.53125 61.328125 
L 17.53125 34.1875 
L 36.421875 34.1875 
Q 44.484375 34.1875 48.265625 37.75 
Q 52.046875 41.3125 52.046875 48 
z
" id="LiberationSans-80"/>
      </defs>
      <g style="fill:#262626;" transform="translate(138.82125 344.93625)scale(0.12 -0.12)">
       <use xlink:href="#LiberationSans-78"/>
       <use x="72.216797" xlink:href="#LiberationSans-83"/>
       <use x="138.916016" xlink:href="#LiberationSans-83"/>
       <use x="205.615234" xlink:href="#LiberationSans-67"/>
       <use x="277.832031" xlink:href="#LiberationSans-80"/>
       <use x="344.53125" xlink:href="#LiberationSans-45"/>
       <use x="377.832031" xlink:href="#LiberationSans-51"/>
       <use x="433.447266" xlink:href="#LiberationSans-50"/>
      </g>
     </g>
    </g>
   </g>
   <g id="matplotlib.axis_2">
    <g id="ytick_1">
     <g id="line2d_6">
      <defs>
       <path d="M 0 0 
L -6 0 
" id="m14061ed4f0" style="stroke:#262626;stroke-width:2;"/>
      </defs>
      <g>
       <use style="fill:#262626;stroke:#262626;stroke-width:2;" x="63.54" xlink:href="#m14061ed4f0" y="329.340354"/>
      </g>
     </g>
     <g id="text_3">
      <!-- 0.50 -->
      <defs>
       <path d="M 51.703125 34.421875 
Q 51.703125 24.515625 49.828125 17.75 
Q 47.953125 10.984375 44.703125 6.8125 
Q 41.453125 2.640625 37.0625 0.828125 
Q 32.671875 -0.984375 27.6875 -0.984375 
Q 22.65625 -0.984375 18.3125 0.828125 
Q 13.96875 2.640625 10.765625 6.78125 
Q 7.5625 10.9375 5.734375 17.703125 
Q 3.90625 24.46875 3.90625 34.421875 
Q 3.90625 44.828125 5.734375 51.640625 
Q 7.5625 58.453125 10.78125 62.5 
Q 14.015625 66.546875 18.40625 68.1875 
Q 22.796875 69.828125 27.984375 69.828125 
Q 32.90625 69.828125 37.21875 68.1875 
Q 41.546875 66.546875 44.765625 62.5 
Q 48 58.453125 49.84375 51.640625 
Q 51.703125 44.828125 51.703125 34.421875 
z
M 42.78125 34.421875 
Q 42.78125 42.625 41.796875 48.0625 
Q 40.828125 53.515625 38.921875 56.765625 
Q 37.015625 60.015625 34.25 61.359375 
Q 31.5 62.703125 27.984375 62.703125 
Q 24.265625 62.703125 21.4375 61.328125 
Q 18.609375 59.96875 16.671875 56.71875 
Q 14.75 53.46875 13.765625 48.015625 
Q 12.796875 42.578125 12.796875 34.421875 
Q 12.796875 26.515625 13.796875 21.09375 
Q 14.796875 15.671875 16.71875 12.375 
Q 18.65625 9.078125 21.4375 7.640625 
Q 24.21875 6.203125 27.78125 6.203125 
Q 31.25 6.203125 34.03125 7.640625 
Q 36.8125 9.078125 38.734375 12.375 
Q 40.671875 15.671875 41.71875 21.09375 
Q 42.78125 26.515625 42.78125 34.421875 
z
" id="LiberationSans-48"/>
       <path d="M 9.125 0 
L 9.125 10.6875 
L 18.65625 10.6875 
L 18.65625 0 
z
" id="LiberationSans-46"/>
       <path d="M 51.421875 22.40625 
Q 51.421875 17.234375 49.859375 12.9375 
Q 48.296875 8.640625 45.21875 5.53125 
Q 42.140625 2.4375 37.578125 0.71875 
Q 33.015625 -0.984375 27 -0.984375 
Q 21.578125 -0.984375 17.546875 0.28125 
Q 13.53125 1.5625 10.734375 3.78125 
Q 7.953125 6 6.3125 8.984375 
Q 4.6875 11.96875 4 15.375 
L 12.890625 16.40625 
Q 13.421875 14.453125 14.390625 12.625 
Q 15.375 10.796875 17.0625 9.34375 
Q 18.75 7.90625 21.21875 7.046875 
Q 23.6875 6.203125 27.203125 6.203125 
Q 30.609375 6.203125 33.390625 7.25 
Q 36.1875 8.296875 38.15625 10.34375 
Q 40.140625 12.40625 41.203125 15.375 
Q 42.28125 18.359375 42.28125 22.21875 
Q 42.28125 25.390625 41.25 28.046875 
Q 40.234375 30.71875 38.328125 32.640625 
Q 36.421875 34.578125 33.65625 35.640625 
Q 30.90625 36.71875 27.390625 36.71875 
Q 25.203125 36.71875 23.34375 36.328125 
Q 21.484375 35.9375 19.890625 35.25 
Q 18.3125 34.578125 17.015625 33.671875 
Q 15.71875 32.765625 14.59375 31.78125 
L 6 31.78125 
L 8.296875 68.796875 
L 47.40625 68.796875 
L 47.40625 61.328125 
L 16.3125 61.328125 
L 14.984375 39.5 
Q 17.328125 41.3125 20.84375 42.59375 
Q 24.359375 43.890625 29.203125 43.890625 
Q 34.328125 43.890625 38.421875 42.328125 
Q 42.53125 40.765625 45.40625 37.90625 
Q 48.296875 35.0625 49.859375 31.109375 
Q 51.421875 27.15625 51.421875 22.40625 
z
" id="LiberationSans-53"/>
      </defs>
      <g style="fill:#262626;" transform="translate(30.686875 333.688479)scale(0.12 -0.12)">
       <use xlink:href="#LiberationSans-48"/>
       <use x="55.615234" xlink:href="#LiberationSans-46"/>
       <use x="83.398438" xlink:href="#LiberationSans-53"/>
       <use x="139.013672" xlink:href="#LiberationSans-48"/>
      </g>
     </g>
    </g>
    <g id="ytick_2">
     <g id="line2d_7">
      <g>
       <use style="fill:#262626;stroke:#262626;stroke-width:2;" x="63.54" xlink:href="#m14061ed4f0" y="295.208596"/>
      </g>
     </g>
     <g id="text_4">
      <!-- 0.75 -->
      <defs>
       <path d="M 50.59375 61.671875 
Q 45.40625 53.765625 41.0625 46.453125 
Q 36.71875 39.15625 33.59375 31.75 
Q 30.46875 24.359375 28.734375 16.578125 
Q 27 8.796875 27 0 
L 17.828125 0 
Q 17.828125 8.25 19.78125 16.1875 
Q 21.734375 24.125 25.046875 31.765625 
Q 28.375 39.40625 32.765625 46.78125 
Q 37.15625 54.15625 42.09375 61.328125 
L 5.125 61.328125 
L 5.125 68.796875 
L 50.59375 68.796875 
z
" id="LiberationSans-55"/>
      </defs>
      <g style="fill:#262626;" transform="translate(30.686875 299.556721)scale(0.12 -0.12)">
       <use xlink:href="#LiberationSans-48"/>
       <use x="55.615234" xlink:href="#LiberationSans-46"/>
       <use x="83.398438" xlink:href="#LiberationSans-55"/>
       <use x="139.013672" xlink:href="#LiberationSans-53"/>
      </g>
     </g>
    </g>
    <g id="ytick_3">
     <g id="line2d_8">
      <g>
       <use style="fill:#262626;stroke:#262626;stroke-width:2;" x="63.54" xlink:href="#m14061ed4f0" y="261.076837"/>
      </g>
     </g>
     <g id="text_5">
      <!-- 1.00 -->
      <defs>
       <path d="M 7.625 0 
L 7.625 7.46875 
L 25.140625 7.46875 
L 25.140625 60.40625 
L 9.625 49.3125 
L 9.625 57.625 
L 25.875 68.796875 
L 33.984375 68.796875 
L 33.984375 7.46875 
L 50.734375 7.46875 
L 50.734375 0 
z
" id="LiberationSans-49"/>
      </defs>
      <g style="fill:#262626;" transform="translate(30.686875 265.424962)scale(0.12 -0.12)">
       <use xlink:href="#LiberationSans-49"/>
       <use x="55.615234" xlink:href="#LiberationSans-46"/>
       <use x="83.398438" xlink:href="#LiberationSans-48"/>
       <use x="139.013672" xlink:href="#LiberationSans-48"/>
      </g>
     </g>
    </g>
    <g id="ytick_4">
     <g id="line2d_9">
      <g>
       <use style="fill:#262626;stroke:#262626;stroke-width:2;" x="63.54" xlink:href="#m14061ed4f0" y="226.945079"/>
      </g>
     </g>
     <g id="text_6">
      <!-- 1.25 -->
      <g style="fill:#262626;" transform="translate(30.686875 231.293204)scale(0.12 -0.12)">
       <use xlink:href="#LiberationSans-49"/>
       <use x="55.615234" xlink:href="#LiberationSans-46"/>
       <use x="83.398438" xlink:href="#LiberationSans-50"/>
       <use x="139.013672" xlink:href="#LiberationSans-53"/>
      </g>
     </g>
    </g>
    <g id="ytick_5">
     <g id="line2d_10">
      <g>
       <use style="fill:#262626;stroke:#262626;stroke-width:2;" x="63.54" xlink:href="#m14061ed4f0" y="192.813321"/>
      </g>
     </g>
     <g id="text_7">
      <!-- 1.50 -->
      <g style="fill:#262626;" transform="translate(30.686875 197.161446)scale(0.12 -0.12)">
       <use xlink:href="#LiberationSans-49"/>
       <use x="55.615234" xlink:href="#LiberationSans-46"/>
       <use x="83.398438" xlink:href="#LiberationSans-53"/>
       <use x="139.013672" xlink:href="#LiberationSans-48"/>
      </g>
     </g>
    </g>
    <g id="ytick_6">
     <g id="line2d_11">
      <g>
       <use style="fill:#262626;stroke:#262626;stroke-width:2;" x="63.54" xlink:href="#m14061ed4f0" y="158.681562"/>
      </g>
     </g>
     <g id="text_8">
      <!-- 1.75 -->
      <g style="fill:#262626;" transform="translate(30.686875 163.029687)scale(0.12 -0.12)">
       <use xlink:href="#LiberationSans-49"/>
       <use x="55.615234" xlink:href="#LiberationSans-46"/>
       <use x="83.398438" xlink:href="#LiberationSans-55"/>
       <use x="139.013672" xlink:href="#LiberationSans-53"/>
      </g>
     </g>
    </g>
    <g id="ytick_7">
     <g id="line2d_12">
      <g>
       <use style="fill:#262626;stroke:#262626;stroke-width:2;" x="63.54" xlink:href="#m14061ed4f0" y="124.549804"/>
      </g>
     </g>
     <g id="text_9">
      <!-- 2.00 -->
      <g style="fill:#262626;" transform="translate(30.686875 128.897929)scale(0.12 -0.12)">
       <use xlink:href="#LiberationSans-50"/>
       <use x="55.615234" xlink:href="#LiberationSans-46"/>
       <use x="83.398438" xlink:href="#LiberationSans-48"/>
       <use x="139.013672" xlink:href="#LiberationSans-48"/>
      </g>
     </g>
    </g>
    <g id="ytick_8">
     <g id="line2d_13">
      <g>
       <use style="fill:#262626;stroke:#262626;stroke-width:2;" x="63.54" xlink:href="#m14061ed4f0" y="90.418046"/>
      </g>
     </g>
     <g id="text_10">
      <!-- 2.25 -->
      <g style="fill:#262626;" transform="translate(30.686875 94.766171)scale(0.12 -0.12)">
       <use xlink:href="#LiberationSans-50"/>
       <use x="55.615234" xlink:href="#LiberationSans-46"/>
       <use x="83.398438" xlink:href="#LiberationSans-50"/>
       <use x="139.013672" xlink:href="#LiberationSans-53"/>
      </g>
     </g>
    </g>
    <g id="ytick_9">
     <g id="line2d_14">
      <g>
       <use style="fill:#262626;stroke:#262626;stroke-width:2;" x="63.54" xlink:href="#m14061ed4f0" y="56.286287"/>
      </g>
     </g>
     <g id="text_11">
      <!-- 2.50 -->
      <g style="fill:#262626;" transform="translate(30.686875 60.634412)scale(0.12 -0.12)">
       <use xlink:href="#LiberationSans-50"/>
       <use x="55.615234" xlink:href="#LiberationSans-46"/>
       <use x="83.398438" xlink:href="#LiberationSans-53"/>
       <use x="139.013672" xlink:href="#LiberationSans-48"/>
      </g>
     </g>
    </g>
    <g id="text_12">
     <!-- Ratio of PopZ pole to opposite pole -->
     <defs>
      <path d="M 56.84375 0 
L 38.96875 28.5625 
L 17.53125 28.5625 
L 17.53125 0 
L 8.203125 0 
L 8.203125 68.796875 
L 40.578125 68.796875 
Q 46.4375 68.796875 50.953125 67.453125 
Q 55.46875 66.109375 58.546875 63.5625 
Q 61.625 61.03125 63.234375 57.375 
Q 64.84375 53.71875 64.84375 49.125 
Q 64.84375 45.84375 63.890625 42.671875 
Q 62.9375 39.5 60.890625 36.859375 
Q 58.84375 34.234375 55.65625 32.328125 
Q 52.484375 30.421875 48.046875 29.640625 
L 67.578125 0 
z
M 55.46875 49.03125 
Q 55.46875 52.15625 54.390625 54.4375 
Q 53.328125 56.734375 51.265625 58.265625 
Q 49.21875 59.8125 46.28125 60.5625 
Q 43.359375 61.328125 39.65625 61.328125 
L 17.53125 61.328125 
L 17.53125 35.9375 
L 40.046875 35.9375 
Q 44.046875 35.9375 46.96875 36.9375 
Q 49.90625 37.9375 51.78125 39.6875 
Q 53.65625 41.453125 54.5625 43.84375 
Q 55.46875 46.234375 55.46875 49.03125 
z
" id="LiberationSans-82"/>
      <path d="M 20.21875 -0.984375 
Q 12.25 -0.984375 8.25 3.21875 
Q 4.25 7.421875 4.25 14.75 
Q 4.25 19.96875 6.21875 23.3125 
Q 8.203125 26.65625 11.390625 28.5625 
Q 14.59375 30.46875 18.6875 31.203125 
Q 22.796875 31.9375 27.046875 32.03125 
L 38.921875 32.234375 
L 38.921875 35.109375 
Q 38.921875 38.375 38.234375 40.671875 
Q 37.546875 42.96875 36.125 44.375 
Q 34.71875 45.796875 32.59375 46.453125 
Q 30.46875 47.125 27.59375 47.125 
Q 25.046875 47.125 23 46.75 
Q 20.953125 46.390625 19.4375 45.4375 
Q 17.921875 44.484375 16.984375 42.84375 
Q 16.0625 41.21875 15.765625 38.71875 
L 6.59375 39.546875 
Q 7.078125 42.671875 8.4375 45.28125 
Q 9.8125 47.90625 12.328125 49.796875 
Q 14.84375 51.703125 18.625 52.75 
Q 22.40625 53.8125 27.78125 53.8125 
Q 37.75 53.8125 42.765625 49.234375 
Q 47.796875 44.671875 47.796875 36.03125 
L 47.796875 13.28125 
Q 47.796875 9.375 48.828125 7.390625 
Q 49.859375 5.421875 52.734375 5.421875 
Q 53.46875 5.421875 54.203125 5.515625 
Q 54.9375 5.609375 55.609375 5.765625 
L 55.609375 0.296875 
Q 53.953125 -0.09375 52.3125 -0.28125 
Q 50.6875 -0.484375 48.828125 -0.484375 
Q 46.34375 -0.484375 44.5625 0.171875 
Q 42.78125 0.828125 41.65625 2.171875 
Q 40.53125 3.515625 39.9375 5.484375 
Q 39.359375 7.46875 39.203125 10.109375 
L 38.921875 10.109375 
Q 37.5 7.5625 35.8125 5.515625 
Q 34.125 3.46875 31.875 2.03125 
Q 29.640625 0.59375 26.78125 -0.1875 
Q 23.921875 -0.984375 20.21875 -0.984375 
z
M 22.21875 5.609375 
Q 26.421875 5.609375 29.5625 7.140625 
Q 32.71875 8.6875 34.78125 11.078125 
Q 36.859375 13.484375 37.890625 16.3125 
Q 38.921875 19.140625 38.921875 21.734375 
L 38.921875 26.078125 
L 29.296875 25.875 
Q 26.078125 25.828125 23.171875 25.40625 
Q 20.265625 25 18.0625 23.78125 
Q 15.875 22.5625 14.578125 20.359375 
Q 13.28125 18.171875 13.28125 14.59375 
Q 13.28125 10.296875 15.59375 7.953125 
Q 17.921875 5.609375 22.21875 5.609375 
z
" id="LiberationSans-97"/>
      <path d="M 27.046875 0.390625 
Q 25.046875 -0.140625 22.96875 -0.453125 
Q 20.90625 -0.78125 18.171875 -0.78125 
Q 7.625 -0.78125 7.625 11.1875 
L 7.625 46.4375 
L 1.515625 46.4375 
L 1.515625 52.828125 
L 7.953125 52.828125 
L 10.546875 64.65625 
L 16.40625 64.65625 
L 16.40625 52.828125 
L 26.171875 52.828125 
L 26.171875 46.4375 
L 16.40625 46.4375 
L 16.40625 13.09375 
Q 16.40625 9.28125 17.640625 7.734375 
Q 18.890625 6.203125 21.96875 6.203125 
Q 23.25 6.203125 24.4375 6.390625 
Q 25.640625 6.59375 27.046875 6.890625 
z
" id="LiberationSans-116"/>
      <path d="M 6.6875 64.0625 
L 6.6875 72.46875 
L 15.484375 72.46875 
L 15.484375 64.0625 
z
M 6.6875 0 
L 6.6875 52.828125 
L 15.484375 52.828125 
L 15.484375 0 
z
" id="LiberationSans-105"/>
      <path d="M 51.421875 26.46875 
Q 51.421875 12.59375 45.3125 5.796875 
Q 39.203125 -0.984375 27.59375 -0.984375 
Q 22.078125 -0.984375 17.71875 0.671875 
Q 13.375 2.34375 10.375 5.765625 
Q 7.375 9.1875 5.78125 14.328125 
Q 4.203125 19.484375 4.203125 26.46875 
Q 4.203125 53.8125 27.875 53.8125 
Q 34.03125 53.8125 38.5 52.09375 
Q 42.96875 50.390625 45.828125 46.96875 
Q 48.6875 43.5625 50.046875 38.421875 
Q 51.421875 33.296875 51.421875 26.46875 
z
M 42.1875 26.46875 
Q 42.1875 32.625 41.234375 36.625 
Q 40.28125 40.625 38.453125 43.015625 
Q 36.625 45.40625 33.984375 46.359375 
Q 31.34375 47.3125 28.03125 47.3125 
Q 24.65625 47.3125 21.9375 46.3125 
Q 19.234375 45.3125 17.328125 42.890625 
Q 15.4375 40.484375 14.421875 36.46875 
Q 13.421875 32.46875 13.421875 26.46875 
Q 13.421875 20.3125 14.5 16.28125 
Q 15.578125 12.25 17.453125 9.859375 
Q 19.34375 7.46875 21.90625 6.484375 
Q 24.46875 5.515625 27.484375 5.515625 
Q 30.859375 5.515625 33.59375 6.46875 
Q 36.328125 7.421875 38.234375 9.8125 
Q 40.140625 12.203125 41.15625 16.25 
Q 42.1875 20.3125 42.1875 26.46875 
z
" id="LiberationSans-111"/>
      <path id="LiberationSans-32"/>
      <path d="M 17.625 46.4375 
L 17.625 0 
L 8.84375 0 
L 8.84375 46.4375 
L 1.421875 46.4375 
L 1.421875 52.828125 
L 8.84375 52.828125 
L 8.84375 58.796875 
Q 8.84375 61.671875 9.375 64.140625 
Q 9.90625 66.609375 11.34375 68.4375 
Q 12.796875 70.265625 15.28125 71.3125 
Q 17.78125 72.359375 21.734375 72.359375 
Q 23.296875 72.359375 24.96875 72.21875 
Q 26.65625 72.078125 27.9375 71.78125 
L 27.9375 65.09375 
Q 27.09375 65.234375 26 65.359375 
Q 24.90625 65.484375 24.03125 65.484375 
Q 22.078125 65.484375 20.828125 64.9375 
Q 19.578125 64.40625 18.875 63.40625 
Q 18.171875 62.40625 17.890625 60.9375 
Q 17.625 59.46875 17.625 57.5625 
L 17.625 52.828125 
L 27.9375 52.828125 
L 27.9375 46.4375 
z
" id="LiberationSans-102"/>
      <path d="M 51.421875 26.65625 
Q 51.421875 20.65625 50.4375 15.578125 
Q 49.46875 10.5 47.1875 6.828125 
Q 44.921875 3.171875 41.1875 1.09375 
Q 37.453125 -0.984375 31.984375 -0.984375 
Q 26.3125 -0.984375 22.0625 1.171875 
Q 17.828125 3.328125 15.578125 8.203125 
L 15.328125 8.203125 
Q 15.375 8.109375 15.40625 7.328125 
Q 15.4375 6.546875 15.453125 5.375 
Q 15.484375 4.203125 15.5 2.75 
Q 15.53125 1.3125 15.53125 -0.09375 
L 15.53125 -20.75 
L 6.734375 -20.75 
L 6.734375 42.046875 
Q 6.734375 43.953125 6.703125 45.703125 
Q 6.6875 47.46875 6.640625 48.90625 
Q 6.59375 50.34375 6.546875 51.359375 
Q 6.5 52.390625 6.453125 52.828125 
L 14.9375 52.828125 
Q 14.984375 52.6875 15.0625 51.796875 
Q 15.140625 50.921875 15.203125 49.671875 
Q 15.28125 48.4375 15.359375 47.015625 
Q 15.4375 45.609375 15.4375 44.34375 
L 15.625 44.34375 
Q 16.84375 46.875 18.40625 48.65625 
Q 19.96875 50.4375 21.96875 51.578125 
Q 23.96875 52.734375 26.4375 53.25 
Q 28.90625 53.765625 31.984375 53.765625 
Q 37.453125 53.765625 41.1875 51.8125 
Q 44.921875 49.859375 47.1875 46.3125 
Q 49.46875 42.78125 50.4375 37.765625 
Q 51.421875 32.765625 51.421875 26.65625 
z
M 42.1875 26.46875 
Q 42.1875 31.34375 41.59375 35.15625 
Q 41.015625 38.96875 39.578125 41.59375 
Q 38.140625 44.234375 35.734375 45.59375 
Q 33.34375 46.96875 29.734375 46.96875 
Q 26.8125 46.96875 24.21875 46.140625 
Q 21.625 45.3125 19.703125 42.96875 
Q 17.78125 40.625 16.65625 36.5 
Q 15.53125 32.375 15.53125 25.78125 
Q 15.53125 20.171875 16.453125 16.28125 
Q 17.390625 12.40625 19.171875 10.015625 
Q 20.953125 7.625 23.578125 6.5625 
Q 26.21875 5.515625 29.640625 5.515625 
Q 33.296875 5.515625 35.71875 6.921875 
Q 38.140625 8.34375 39.578125 11.03125 
Q 41.015625 13.71875 41.59375 17.59375 
Q 42.1875 21.484375 42.1875 26.46875 
z
" id="LiberationSans-112"/>
      <path d="M 57.953125 0 
L 3.171875 0 
L 3.171875 6.984375 
L 45.0625 61.1875 
L 6.734375 61.1875 
L 6.734375 68.796875 
L 55.671875 68.796875 
L 55.671875 62.015625 
L 13.765625 7.625 
L 57.953125 7.625 
z
" id="LiberationSans-90"/>
      <path d="M 6.734375 0 
L 6.734375 72.46875 
L 15.53125 72.46875 
L 15.53125 0 
z
" id="LiberationSans-108"/>
      <path d="M 13.484375 24.5625 
Q 13.484375 20.40625 14.328125 16.90625 
Q 15.1875 13.421875 16.96875 10.90625 
Q 18.75 8.40625 21.53125 7 
Q 24.3125 5.609375 28.21875 5.609375 
Q 33.9375 5.609375 37.375 7.90625 
Q 40.828125 10.203125 42.046875 13.71875 
L 49.75 11.53125 
Q 48.921875 9.328125 47.4375 7.109375 
Q 45.953125 4.890625 43.453125 3.09375 
Q 40.96875 1.3125 37.234375 0.15625 
Q 33.5 -0.984375 28.21875 -0.984375 
Q 16.5 -0.984375 10.375 6 
Q 4.25 12.984375 4.25 26.765625 
Q 4.25 34.1875 6.09375 39.328125 
Q 7.953125 44.484375 11.171875 47.703125 
Q 14.40625 50.921875 18.703125 52.359375 
Q 23 53.8125 27.875 53.8125 
Q 34.515625 53.8125 38.984375 51.65625 
Q 43.453125 49.515625 46.15625 45.71875 
Q 48.875 41.9375 50.015625 36.8125 
Q 51.171875 31.6875 51.171875 25.734375 
L 51.171875 24.5625 
z
M 42.09375 31.296875 
Q 41.359375 39.65625 37.84375 43.484375 
Q 34.328125 47.3125 27.734375 47.3125 
Q 25.53125 47.3125 23.109375 46.609375 
Q 20.703125 45.90625 18.65625 44.09375 
Q 16.609375 42.28125 15.1875 39.171875 
Q 13.765625 36.078125 13.578125 31.296875 
z
" id="LiberationSans-101"/>
      <path d="M 46.390625 14.59375 
Q 46.390625 10.890625 44.9375 7.984375 
Q 43.5 5.078125 40.765625 3.09375 
Q 38.03125 1.125 34.046875 0.0625 
Q 30.078125 -0.984375 24.953125 -0.984375 
Q 20.359375 -0.984375 16.671875 -0.265625 
Q 12.984375 0.4375 10.203125 2 
Q 7.421875 3.5625 5.53125 6.125 
Q 3.65625 8.6875 2.78125 12.40625 
L 10.546875 13.921875 
Q 11.671875 9.671875 15.1875 7.6875 
Q 18.703125 5.71875 24.953125 5.71875 
Q 27.78125 5.71875 30.140625 6.109375 
Q 32.515625 6.5 34.21875 7.453125 
Q 35.9375 8.40625 36.890625 9.984375 
Q 37.84375 11.578125 37.84375 13.921875 
Q 37.84375 16.3125 36.71875 17.84375 
Q 35.59375 19.390625 33.59375 20.40625 
Q 31.59375 21.4375 28.734375 22.1875 
Q 25.875 22.953125 22.46875 23.875 
Q 19.28125 24.703125 16.15625 25.734375 
Q 13.03125 26.765625 10.515625 28.4375 
Q 8.015625 30.125 6.453125 32.609375 
Q 4.890625 35.109375 4.890625 38.875 
Q 4.890625 46.09375 10.03125 49.875 
Q 15.1875 53.65625 25.046875 53.65625 
Q 33.796875 53.65625 38.9375 50.578125 
Q 44.09375 47.515625 45.453125 40.71875 
L 37.546875 39.75 
Q 37.109375 41.796875 35.9375 43.1875 
Q 34.765625 44.578125 33.109375 45.4375 
Q 31.453125 46.296875 29.375 46.65625 
Q 27.296875 47.015625 25.046875 47.015625 
Q 19.09375 47.015625 16.25 45.203125 
Q 13.421875 43.40625 13.421875 39.75 
Q 13.421875 37.59375 14.46875 36.203125 
Q 15.53125 34.8125 17.40625 33.859375 
Q 19.28125 32.90625 21.921875 32.203125 
Q 24.5625 31.5 27.734375 30.71875 
Q 29.828125 30.171875 32.03125 29.5625 
Q 34.234375 28.953125 36.296875 28.09375 
Q 38.375 27.25 40.203125 26.09375 
Q 42.046875 24.953125 43.40625 23.34375 
Q 44.78125 21.734375 45.578125 19.578125 
Q 46.390625 17.4375 46.390625 14.59375 
z
" id="LiberationSans-115"/>
     </defs>
     <g style="fill:#262626;" transform="translate(23.781875 286.845281)rotate(-90)scale(0.14 -0.14)">
      <use xlink:href="#LiberationSans-82"/>
      <use x="72.216797" xlink:href="#LiberationSans-97"/>
      <use x="127.832031" xlink:href="#LiberationSans-116"/>
      <use x="155.615234" xlink:href="#LiberationSans-105"/>
      <use x="177.832031" xlink:href="#LiberationSans-111"/>
      <use x="233.447266" xlink:href="#LiberationSans-32"/>
      <use x="261.230469" xlink:href="#LiberationSans-111"/>
      <use x="316.845703" xlink:href="#LiberationSans-102"/>
      <use x="344.628906" xlink:href="#LiberationSans-32"/>
      <use x="372.412109" xlink:href="#LiberationSans-80"/>
      <use x="439.111328" xlink:href="#LiberationSans-111"/>
      <use x="494.726562" xlink:href="#LiberationSans-112"/>
      <use x="550.341797" xlink:href="#LiberationSans-90"/>
      <use x="611.425781" xlink:href="#LiberationSans-32"/>
      <use x="639.208984" xlink:href="#LiberationSans-112"/>
      <use x="694.824219" xlink:href="#LiberationSans-111"/>
      <use x="750.439453" xlink:href="#LiberationSans-108"/>
      <use x="772.65625" xlink:href="#LiberationSans-101"/>
      <use x="828.271484" xlink:href="#LiberationSans-32"/>
      <use x="856.054688" xlink:href="#LiberationSans-116"/>
      <use x="883.837891" xlink:href="#LiberationSans-111"/>
      <use x="939.453125" xlink:href="#LiberationSans-32"/>
      <use x="967.236328" xlink:href="#LiberationSans-111"/>
      <use x="1022.851562" xlink:href="#LiberationSans-112"/>
      <use x="1078.466797" xlink:href="#LiberationSans-112"/>
      <use x="1134.082031" xlink:href="#LiberationSans-111"/>
      <use x="1189.697266" xlink:href="#LiberationSans-115"/>
      <use x="1239.697266" xlink:href="#LiberationSans-105"/>
      <use x="1261.914062" xlink:href="#LiberationSans-116"/>
      <use x="1289.697266" xlink:href="#LiberationSans-101"/>
      <use x="1345.3125" xlink:href="#LiberationSans-32"/>
      <use x="1373.095703" xlink:href="#LiberationSans-112"/>
      <use x="1428.710938" xlink:href="#LiberationSans-111"/>
      <use x="1484.326172" xlink:href="#LiberationSans-108"/>
      <use x="1506.542969" xlink:href="#LiberationSans-101"/>
     </g>
    </g>
   </g>
   <g id="PolyCollection_1">
    <path clip-path="url(#p15130027df)" d="M 108.343293 315.991091 
L 88.486707 315.991091 
L 87.807496 314.658482 
L 87.112567 313.325874 
L 86.40409 311.993265 
L 85.684386 310.660657 
L 84.955917 309.328048 
L 84.221276 307.995439 
L 83.483179 306.662831 
L 82.744454 305.330222 
L 82.008033 303.997614 
L 81.276936 302.665005 
L 80.554263 301.332397 
L 79.843178 299.999788 
L 79.146891 298.667179 
L 78.46864 297.334571 
L 77.811662 296.001962 
L 77.179171 294.669354 
L 76.574319 293.336745 
L 76.00016 292.004137 
L 75.459612 290.671528 
L 74.955404 289.338919 
L 74.490033 288.006311 
L 74.065711 286.673702 
L 73.684314 285.341094 
L 73.347333 284.008485 
L 73.05583 282.675877 
L 72.810392 281.343268 
L 72.611109 280.010659 
L 72.457541 278.678051 
L 72.348715 277.345442 
L 72.283125 276.012834 
L 72.25875 274.680225 
L 72.273089 273.347617 
L 72.323208 272.015008 
L 72.405803 270.682399 
L 72.517278 269.349791 
L 72.653833 268.017182 
L 72.811564 266.684574 
L 72.986563 265.351965 
L 73.175031 264.019357 
L 73.373376 262.686748 
L 73.578322 261.354139 
L 73.786997 260.021531 
L 73.997013 258.688922 
L 74.206533 257.356314 
L 74.414314 256.023705 
L 74.619736 254.691097 
L 74.822808 253.358488 
L 75.024145 252.025879 
L 75.224936 250.693271 
L 75.426881 249.360662 
L 75.632113 248.028054 
L 75.84311 246.695445 
L 76.062584 245.362837 
L 76.293371 244.030228 
L 76.538315 242.697619 
L 76.800147 241.365011 
L 77.081371 240.032402 
L 77.384163 238.699794 
L 77.710271 237.367185 
L 78.060939 236.034577 
L 78.436845 234.701968 
L 78.838057 233.369359 
L 79.264008 232.036751 
L 79.713499 230.704142 
L 80.184711 229.371534 
L 80.675248 228.038925 
L 81.182193 226.706317 
L 81.702176 225.373708 
L 82.231463 224.041099 
L 82.766053 222.708491 
L 83.301779 221.375882 
L 83.834421 220.043274 
L 84.359811 218.710665 
L 84.873945 217.378057 
L 85.373083 216.045448 
L 85.853843 214.712839 
L 86.313284 213.380231 
L 86.74898 212.047622 
L 87.159071 210.715014 
L 87.542302 209.382405 
L 87.898049 208.049797 
L 88.226317 206.717188 
L 88.527732 205.384579 
L 88.803503 204.051971 
L 89.05538 202.719362 
L 89.285591 201.386754 
L 89.496769 200.054145 
L 89.691864 198.721536 
L 89.874057 197.388928 
L 90.046661 196.056319 
L 90.213026 194.723711 
L 90.376442 193.391102 
L 90.540048 192.058494 
L 90.706751 190.725885 
L 90.879148 189.393276 
L 91.059469 188.060668 
L 91.249524 186.728059 
L 91.45067 185.395451 
L 91.663792 184.062842 
L 105.166208 184.062842 
L 105.166208 184.062842 
L 105.37933 185.395451 
L 105.580476 186.728059 
L 105.770531 188.060668 
L 105.950852 189.393276 
L 106.123249 190.725885 
L 106.289952 192.058494 
L 106.453558 193.391102 
L 106.616974 194.723711 
L 106.783339 196.056319 
L 106.955943 197.388928 
L 107.138136 198.721536 
L 107.333231 200.054145 
L 107.544409 201.386754 
L 107.77462 202.719362 
L 108.026497 204.051971 
L 108.302268 205.384579 
L 108.603683 206.717188 
L 108.931951 208.049797 
L 109.287698 209.382405 
L 109.670929 210.715014 
L 110.08102 212.047622 
L 110.516716 213.380231 
L 110.976157 214.712839 
L 111.456917 216.045448 
L 111.956055 217.378057 
L 112.470189 218.710665 
L 112.995579 220.043274 
L 113.528221 221.375882 
L 114.063947 222.708491 
L 114.598537 224.041099 
L 115.127824 225.373708 
L 115.647807 226.706317 
L 116.154752 228.038925 
L 116.645289 229.371534 
L 117.116501 230.704142 
L 117.565992 232.036751 
L 117.991943 233.369359 
L 118.393155 234.701968 
L 118.769061 236.034577 
L 119.119729 237.367185 
L 119.445837 238.699794 
L 119.748629 240.032402 
L 120.029853 241.365011 
L 120.291685 242.697619 
L 120.536629 244.030228 
L 120.767416 245.362837 
L 120.98689 246.695445 
L 121.197887 248.028054 
L 121.403119 249.360662 
L 121.605064 250.693271 
L 121.805855 252.025879 
L 122.007192 253.358488 
L 122.210264 254.691097 
L 122.415686 256.023705 
L 122.623467 257.356314 
L 122.832987 258.688922 
L 123.043003 260.021531 
L 123.251678 261.354139 
L 123.456624 262.686748 
L 123.654969 264.019357 
L 123.843437 265.351965 
L 124.018436 266.684574 
L 124.176167 268.017182 
L 124.312722 269.349791 
L 124.424197 270.682399 
L 124.506792 272.015008 
L 124.556911 273.347617 
L 124.57125 274.680225 
L 124.546875 276.012834 
L 124.481285 277.345442 
L 124.372459 278.678051 
L 124.218891 280.010659 
L 124.019608 281.343268 
L 123.77417 282.675877 
L 123.482667 284.008485 
L 123.145686 285.341094 
L 122.764289 286.673702 
L 122.339967 288.006311 
L 121.874596 289.338919 
L 121.370388 290.671528 
L 120.82984 292.004137 
L 120.255681 293.336745 
L 119.650829 294.669354 
L 119.018338 296.001962 
L 118.36136 297.334571 
L 117.683109 298.667179 
L 116.986822 299.999788 
L 116.275737 301.332397 
L 115.553064 302.665005 
L 114.821967 303.997614 
L 114.085546 305.330222 
L 113.346821 306.662831 
L 112.608724 307.995439 
L 111.874083 309.328048 
L 111.145614 310.660657 
L 110.42591 311.993265 
L 109.717433 313.325874 
L 109.022504 314.658482 
L 108.343293 315.991091 
z
" style="fill:#656c84;fill-opacity:0.5;stroke:#ffffff;stroke-opacity:0.5;"/>
   </g>
   <g id="PolyCollection_2">
    <path clip-path="url(#p15130027df)" d="M 187.537411 250.80427 
L 148.792589 250.80427 
L 148.162229 248.664963 
L 147.559461 246.525657 
L 146.986307 244.38635 
L 146.444446 242.247043 
L 145.935209 240.107737 
L 145.459566 237.96843 
L 145.01813 235.829123 
L 144.611167 233.689817 
L 144.238603 231.55051 
L 143.900047 229.411203 
L 143.594812 227.271897 
L 143.321946 225.13259 
L 143.080259 222.993283 
L 142.868358 220.853977 
L 142.684683 218.71467 
L 142.527544 216.575363 
L 142.395159 214.436057 
L 142.285688 212.29675 
L 142.19727 210.157443 
L 142.128062 208.018137 
L 142.076267 205.87883 
L 142.040168 203.739523 
L 142.018154 201.600217 
L 142.00875 199.46091 
L 142.010635 197.321603 
L 142.022664 195.182297 
L 142.043886 193.04299 
L 142.073553 190.903683 
L 142.111132 188.764376 
L 142.15631 186.62507 
L 142.208997 184.485763 
L 142.26932 182.346456 
L 142.337622 180.20715 
L 142.414449 178.067843 
L 142.50054 175.928536 
L 142.596806 173.78923 
L 142.704312 171.649923 
L 142.824252 169.510616 
L 142.957923 167.37131 
L 143.106693 165.232003 
L 143.271972 163.092696 
L 143.455179 160.95339 
L 143.657704 158.814083 
L 143.880876 156.674776 
L 144.125928 154.53547 
L 144.393962 152.396163 
L 144.685918 150.256856 
L 145.002546 148.11755 
L 145.344374 145.978243 
L 145.711691 143.838936 
L 146.104526 141.69963 
L 146.52263 139.560323 
L 146.965474 137.421016 
L 147.432238 135.28171 
L 147.921816 133.142403 
L 148.432822 131.003096 
L 148.963601 128.86379 
L 149.512246 126.724483 
L 150.076617 124.585176 
L 150.65437 122.445869 
L 151.242986 120.306563 
L 151.839799 118.167256 
L 152.442034 116.027949 
L 153.046842 113.888643 
L 153.651338 111.749336 
L 154.252639 109.610029 
L 154.847903 107.470723 
L 155.434361 105.331416 
L 156.009359 103.192109 
L 156.570388 101.052803 
L 157.115112 98.913496 
L 157.641402 96.774189 
L 158.147358 94.634883 
L 158.631328 92.495576 
L 159.091928 90.356269 
L 159.528052 88.216963 
L 159.938885 86.077656 
L 160.323902 83.938349 
L 160.682872 81.799043 
L 161.015852 79.659736 
L 161.323177 77.520429 
L 161.605453 75.381123 
L 161.863532 73.241816 
L 162.098501 71.102509 
L 162.311651 68.963203 
L 162.504459 66.823896 
L 162.678554 64.684589 
L 162.83569 62.545283 
L 162.977712 60.405976 
L 163.106529 58.266669 
L 163.224079 56.127363 
L 163.332294 53.988056 
L 163.433077 51.848749 
L 163.528267 49.709442 
L 163.619613 47.570136 
L 163.708751 45.430829 
L 163.797181 43.291522 
L 163.886249 41.152216 
L 163.977133 39.012909 
L 172.352867 39.012909 
L 172.352867 39.012909 
L 172.443751 41.152216 
L 172.532819 43.291522 
L 172.621249 45.430829 
L 172.710387 47.570136 
L 172.801733 49.709442 
L 172.896923 51.848749 
L 172.997706 53.988056 
L 173.105921 56.127363 
L 173.223471 58.266669 
L 173.352288 60.405976 
L 173.49431 62.545283 
L 173.651446 64.684589 
L 173.825541 66.823896 
L 174.018349 68.963203 
L 174.231499 71.102509 
L 174.466468 73.241816 
L 174.724547 75.381123 
L 175.006823 77.520429 
L 175.314148 79.659736 
L 175.647128 81.799043 
L 176.006098 83.938349 
L 176.391115 86.077656 
L 176.801948 88.216963 
L 177.238072 90.356269 
L 177.698672 92.495576 
L 178.182642 94.634883 
L 178.688598 96.774189 
L 179.214888 98.913496 
L 179.759612 101.052803 
L 180.320641 103.192109 
L 180.895639 105.331416 
L 181.482097 107.470723 
L 182.077361 109.610029 
L 182.678662 111.749336 
L 183.283158 113.888643 
L 183.887966 116.027949 
L 184.490201 118.167256 
L 185.087014 120.306563 
L 185.67563 122.445869 
L 186.253383 124.585176 
L 186.817754 126.724483 
L 187.366399 128.86379 
L 187.897178 131.003096 
L 188.408184 133.142403 
L 188.897762 135.28171 
L 189.364526 137.421016 
L 189.80737 139.560323 
L 190.225474 141.69963 
L 190.618309 143.838936 
L 190.985626 145.978243 
L 191.327454 148.11755 
L 191.644082 150.256856 
L 191.936038 152.396163 
L 192.204072 154.53547 
L 192.449124 156.674776 
L 192.672296 158.814083 
L 192.874821 160.95339 
L 193.058028 163.092696 
L 193.223307 165.232003 
L 193.372077 167.37131 
L 193.505748 169.510616 
L 193.625688 171.649923 
L 193.733194 173.78923 
L 193.82946 175.928536 
L 193.915551 178.067843 
L 193.992378 180.20715 
L 194.06068 182.346456 
L 194.121003 184.485763 
L 194.17369 186.62507 
L 194.218868 188.764376 
L 194.256447 190.903683 
L 194.286114 193.04299 
L 194.307336 195.182297 
L 194.319365 197.321603 
L 194.32125 199.46091 
L 194.311846 201.600217 
L 194.289832 203.739523 
L 194.253733 205.87883 
L 194.201938 208.018137 
L 194.13273 210.157443 
L 194.044312 212.29675 
L 193.934841 214.436057 
L 193.802456 216.575363 
L 193.645317 218.71467 
L 193.461642 220.853977 
L 193.249741 222.993283 
L 193.008054 225.13259 
L 192.735188 227.271897 
L 192.429953 229.411203 
L 192.091397 231.55051 
L 191.718833 233.689817 
L 191.31187 235.829123 
L 190.870434 237.96843 
L 190.394791 240.107737 
L 189.885554 242.247043 
L 189.343693 244.38635 
L 188.770539 246.525657 
L 188.167771 248.664963 
L 187.537411 250.80427 
z
" style="fill:#656c84;fill-opacity:0.5;stroke:#ffffff;stroke-opacity:0.5;"/>
   </g>
   <g id="line2d_15">
    <path clip-path="url(#p15130027df)" d="M 98.415 278.004637 
L 98.415 315.991091 
" style="fill:none;stroke:#000000;stroke-linecap:round;stroke-width:2.5;"/>
   </g>
   <g id="line2d_16">
    <path clip-path="url(#p15130027df)" d="M 98.415 231.112279 
L 98.415 184.062842 
" style="fill:none;stroke:#000000;stroke-linecap:round;stroke-width:2.5;"/>
   </g>
   <g id="line2d_17">
    <path clip-path="url(#p15130027df)" d="M 89.69625 315.991091 
L 107.13375 315.991091 
" style="fill:none;stroke:#000000;stroke-linecap:round;stroke-width:2.5;"/>
   </g>
   <g id="line2d_18">
    <path clip-path="url(#p15130027df)" d="M 89.69625 184.062842 
L 107.13375 184.062842 
" style="fill:none;stroke:#000000;stroke-linecap:round;stroke-width:2.5;"/>
   </g>
   <g id="line2d_19">
    <path clip-path="url(#p15130027df)" d="M 168.165 226.242214 
L 168.165 250.80427 
" style="fill:none;stroke:#000000;stroke-linecap:round;stroke-width:2.5;"/>
   </g>
   <g id="line2d_20">
    <path clip-path="url(#p15130027df)" d="M 168.165 139.54219 
L 168.165 39.012909 
" style="fill:none;stroke:#000000;stroke-linecap:round;stroke-width:2.5;"/>
   </g>
   <g id="line2d_21">
    <path clip-path="url(#p15130027df)" d="M 159.44625 250.80427 
L 176.88375 250.80427 
" style="fill:none;stroke:#000000;stroke-linecap:round;stroke-width:2.5;"/>
   </g>
   <g id="line2d_22">
    <path clip-path="url(#p15130027df)" d="M 159.44625 39.012909 
L 176.88375 39.012909 
" style="fill:none;stroke:#000000;stroke-linecap:round;stroke-width:2.5;"/>
   </g>
   <g id="line2d_23">
    <path clip-path="url(#p15130027df)" d="M 63.54 261.076837 
L 133.29 261.076837 
L 203.04 261.076837 
" style="fill:none;stroke:#808080;stroke-dasharray:7.4,3.2;stroke-dashoffset:0;stroke-width:2;"/>
   </g>
   <g id="line2d_24">
    <path clip-path="url(#p15130027df)" d="M 63.54 329.84 
L 203.04 329.84 
" style="fill:none;stroke:#000000;stroke-linecap:round;stroke-width:3;"/>
   </g>
   <g id="line2d_25">
    <path clip-path="url(#p15130027df)" d="M 63.54 329.84 
L 63.54 25.164 
" style="fill:none;stroke:#000000;stroke-linecap:round;stroke-width:3;"/>
   </g>
   <g id="patch_3">
    <path clip-path="url(#p15130027df)" d="M 94.9275 278.004637 
L 101.9025 278.004637 
L 101.9025 231.112279 
L 94.9275 231.112279 
L 94.9275 278.004637 
z
" style="fill:#808080;stroke:#000000;stroke-linejoin:miter;stroke-width:2.5;"/>
   </g>
   <g id="patch_4">
    <path clip-path="url(#p15130027df)" d="M 164.6775 226.242214 
L 171.6525 226.242214 
L 171.6525 139.54219 
L 164.6775 139.54219 
L 164.6775 226.242214 
z
" style="fill:#808080;stroke:#000000;stroke-linejoin:miter;stroke-width:2.5;"/>
   </g>
   <g id="line2d_26">
    <path clip-path="url(#p15130027df)" d="M 94.9275 260.850636 
L 101.9025 260.850636 
" style="fill:none;stroke:#000000;stroke-linecap:round;stroke-width:4;"/>
   </g>
   <g id="line2d_27">
    <path clip-path="url(#p15130027df)" d="M 164.6775 188.33519 
L 171.6525 188.33519 
" style="fill:none;stroke:#000000;stroke-linecap:round;stroke-width:4;"/>
   </g>
   <g id="patch_5">
    <path d="M 63.54 329.84 
L 63.54 25.164 
" style="fill:none;stroke:#262626;stroke-linecap:square;stroke-linejoin:miter;stroke-width:1.25;"/>
   </g>
   <g id="patch_6">
    <path d="M 63.54 329.84 
L 203.04 329.84 
" style="fill:none;stroke:#262626;stroke-linecap:square;stroke-linejoin:miter;stroke-width:1.25;"/>
   </g>
   <g id="patch_7">
    <path d="M 168.165 24.826687 
L 168.165 19.850869 
L 98.415 19.850869 
L 98.415 24.826687 
" style="fill:none;stroke:#000000;stroke-linecap:round;stroke-width:2;"/>
   </g>
   <g id="text_13">
    <!-- **** -->
    <defs>
     <path d="M 24.03125 55.421875 
L 35.5 60.5 
L 38.8125 50.875 
L 26.609375 47.90625 
L 35.6875 37.5 
L 26.703125 31.59375 
L 19.578125 43.890625 
L 12.3125 31.59375 
L 3.21875 37.59375 
L 12.5 47.90625 
L 0.296875 50.875 
L 3.609375 60.5 
L 15.28125 55.421875 
L 14.40625 68.796875 
L 24.90625 68.796875 
z
" id="LiberationSans-Bold-42"/>
    </defs>
    <g style="fill:#262626;" transform="translate(123.94875 20.788714)scale(0.12 -0.12)">
     <use xlink:href="#LiberationSans-Bold-42"/>
     <use x="38.916016" xlink:href="#LiberationSans-Bold-42"/>
     <use x="77.832031" xlink:href="#LiberationSans-Bold-42"/>
     <use x="116.748047" xlink:href="#LiberationSans-Bold-42"/>
    </g>
   </g>
  </g>
 </g>
 <defs>
  <clipPath id="p15130027df">
   <rect height="304.676" width="139.5" x="63.54" y="25.164"/>
  </clipPath>
 </defs>
</svg>
